name rise30.6535peak61.5555fall82.9339.mot
datacolumns 19
datarows 36
range 1.25999400000000 1.31832600000000
endheader
time	ground_force1_vx	ground_force1_vy	ground_force1_vz	ground_force1_px	ground_force1_py	ground_force1_pz	ground_force2_vx	ground_force2_vy	ground_force2_vz	ground_force2_px	ground_force2_py	ground_force2_pz	ground_torque1_x	ground_torque1_y	ground_torque1_z	ground_torque2_x	ground_torque2_y	ground_torque2_z	
1.25999400000000	9.75537800000000	690.09463800000003	36.60326200000000	0.21090900000000	0.00000000000000	0.08998200000000	0.00000000000000	0.00000000000000	0.00000000000000	0.00000000000000	0.00000000000000	0.00000000000000	0.00000000000000	14.33295100000000	0.00000000000000	0.00000000000000	0.00000000000000	0.00000000000000	
1.26166200000000	9.22896700000000	691.32607499999995	36.62467700000000	0.20992400000000	0.00000000000000	0.08998800000000	0.00000000000000	0.00000000000000	0.00000000000000	0.00000000000000	0.00000000000000	0.00000000000000	0.00000000000000	14.40106900000000	0.00000000000000	0.00000000000000	0.00000000000000	0.00000000000000	
1.26332800000000	8.68950500000000	692.60617100000002	36.65124200000000	0.20891500000000	0.00000000000000	0.08999400000000	0.00000000000000	0.00000000000000	0.00000000000000	0.00000000000000	0.00000000000000	0.00000000000000	0.00000000000000	14.47294000000000	0.00000000000000	0.00000000000000	0.00000000000000	0.00000000000000	
1.26499300000000	8.13687100000000	693.93388000000004	36.68278200000000	0.20788400000000	0.00000000000000	0.09000200000000	0.00000000000000	0.00000000000000	0.00000000000000	0.00000000000000	0.00000000000000	0.00000000000000	0.00000000000000	14.54848500000000	0.00000000000000	0.00000000000000	0.00000000000000	0.00000000000000	
1.26665800000000	7.57098400000000	695.30818899999997	36.71912500000000	0.20683100000000	0.00000000000000	0.09001100000000	0.00000000000000	0.00000000000000	0.00000000000000	0.00000000000000	0.00000000000000	0.00000000000000	0.00000000000000	14.62762600000000	0.00000000000000	0.00000000000000	0.00000000000000	0.00000000000000	
1.26832800000000	6.99180600000000	696.72811600000000	36.76010100000000	0.20575700000000	0.00000000000000	0.09002000000000	0.00000000000000	0.00000000000000	0.00000000000000	0.00000000000000	0.00000000000000	0.00000000000000	0.00000000000000	14.71027800000000	0.00000000000000	0.00000000000000	0.00000000000000	0.00000000000000	
1.26998800000000	6.39934000000000	698.19271200000003	36.80554200000000	0.20466200000000	0.00000000000000	0.09003100000000	0.00000000000000	0.00000000000000	0.00000000000000	0.00000000000000	0.00000000000000	0.00000000000000	0.00000000000000	14.79635700000000	0.00000000000000	0.00000000000000	0.00000000000000	0.00000000000000	
1.27166100000000	5.79362900000000	699.70105599999999	36.85528300000000	0.20354900000000	0.00000000000000	0.09004200000000	0.00000000000000	0.00000000000000	0.00000000000000	0.00000000000000	0.00000000000000	0.00000000000000	0.00000000000000	14.88577600000000	0.00000000000000	0.00000000000000	0.00000000000000	0.00000000000000	
1.27332600000000	5.17475700000000	701.25226099999998	36.90916100000000	0.20241800000000	0.00000000000000	0.09005300000000	0.00000000000000	0.00000000000000	0.00000000000000	0.00000000000000	0.00000000000000	0.00000000000000	0.00000000000000	14.97844200000000	0.00000000000000	0.00000000000000	0.00000000000000	0.00000000000000	
1.27498700000000	4.54284900000000	702.84546399999999	36.96701900000000	0.20127000000000	0.00000000000000	0.09006500000000	0.00000000000000	0.00000000000000	0.00000000000000	0.00000000000000	0.00000000000000	0.00000000000000	0.00000000000000	15.07426200000000	0.00000000000000	0.00000000000000	0.00000000000000	0.00000000000000	
1.27665900000000	3.89806800000000	704.47983099999999	37.02870100000000	0.20010700000000	0.00000000000000	0.09007800000000	0.00000000000000	0.00000000000000	0.00000000000000	0.00000000000000	0.00000000000000	0.00000000000000	0.00000000000000	15.17313700000000	0.00000000000000	0.00000000000000	0.00000000000000	0.00000000000000	
1.27832900000000	3.24061400000000	706.15455099999997	37.09405900000000	0.19893000000000	0.00000000000000	0.09009100000000	0.00000000000000	0.00000000000000	0.00000000000000	0.00000000000000	0.00000000000000	0.00000000000000	0.00000000000000	15.27496600000000	0.00000000000000	0.00000000000000	0.00000000000000	0.00000000000000	
1.27999300000000	2.57072600000000	707.86883200000000	37.16294800000000	0.19774100000000	0.00000000000000	0.09010400000000	0.00000000000000	0.00000000000000	0.00000000000000	0.00000000000000	0.00000000000000	0.00000000000000	0.00000000000000	15.37964500000000	0.00000000000000	0.00000000000000	0.00000000000000	0.00000000000000	
1.28165600000000	1.88867700000000	709.62190399999997	37.23522800000000	0.19654100000000	0.00000000000000	0.09011700000000	0.00000000000000	0.00000000000000	0.00000000000000	0.00000000000000	0.00000000000000	0.00000000000000	0.00000000000000	15.48706300000000	0.00000000000000	0.00000000000000	0.00000000000000	0.00000000000000	
1.28332700000000	1.19477400000000	711.41300899999999	37.31076700000000	0.19533200000000	0.00000000000000	0.09013100000000	0.00000000000000	0.00000000000000	0.00000000000000	0.00000000000000	0.00000000000000	0.00000000000000	0.00000000000000	15.59710700000000	0.00000000000000	0.00000000000000	0.00000000000000	0.00000000000000	
1.28499100000000	0.48936000000000	713.24140199999999	37.38943900000000	0.19411500000000	0.00000000000000	0.09014400000000	0.00000000000000	0.00000000000000	0.00000000000000	0.00000000000000	0.00000000000000	0.00000000000000	0.00000000000000	15.70966000000000	0.00000000000000	0.00000000000000	0.00000000000000	0.00000000000000	
1.28665700000000	-0.22719200000000	715.10634300000004	37.47112500000000	0.19289200000000	0.00000000000000	0.09015800000000	0.00000000000000	0.00000000000000	0.00000000000000	0.00000000000000	0.00000000000000	0.00000000000000	0.00000000000000	15.82460100000000	0.00000000000000	0.00000000000000	0.00000000000000	0.00000000000000	
1.28832900000000	-0.95448000000000	717.00709800000004	37.55571200000000	0.19166500000000	0.00000000000000	0.09017100000000	0.00000000000000	0.00000000000000	0.00000000000000	0.00000000000000	0.00000000000000	0.00000000000000	0.00000000000000	15.94180300000000	0.00000000000000	0.00000000000000	0.00000000000000	0.00000000000000	
1.28999300000000	-1.69207200000000	718.94293200000004	37.64309800000000	0.19043600000000	0.00000000000000	0.09018400000000	0.00000000000000	0.00000000000000	0.00000000000000	0.00000000000000	0.00000000000000	0.00000000000000	0.00000000000000	16.06113700000000	0.00000000000000	0.00000000000000	0.00000000000000	0.00000000000000	
1.29166200000000	-2.43950800000000	720.91310399999998	37.73318800000000	0.18920400000000	0.00000000000000	0.09019700000000	0.00000000000000	0.00000000000000	0.00000000000000	0.00000000000000	0.00000000000000	0.00000000000000	0.00000000000000	16.18246900000000	0.00000000000000	0.00000000000000	0.00000000000000	0.00000000000000	
1.29332600000000	-3.19630400000000	722.91686400000003	37.82589500000000	0.18797400000000	0.00000000000000	0.09020900000000	0.00000000000000	0.00000000000000	0.00000000000000	0.00000000000000	0.00000000000000	0.00000000000000	0.00000000000000	16.30565900000000	0.00000000000000	0.00000000000000	0.00000000000000	0.00000000000000	
1.29499500000000	-3.96195200000000	724.95344799999998	37.92114400000000	0.18674500000000	0.00000000000000	0.09022100000000	0.00000000000000	0.00000000000000	0.00000000000000	0.00000000000000	0.00000000000000	0.00000000000000	0.00000000000000	16.43056600000000	0.00000000000000	0.00000000000000	0.00000000000000	0.00000000000000	
1.29665500000000	-4.73592000000000	727.02206999999999	38.01886500000000	0.18551900000000	0.00000000000000	0.09023200000000	0.00000000000000	0.00000000000000	0.00000000000000	0.00000000000000	0.00000000000000	0.00000000000000	0.00000000000000	16.55704300000000	0.00000000000000	0.00000000000000	0.00000000000000	0.00000000000000	
1.29832900000000	-5.51766000000000	729.12192300000004	38.11900300000000	0.18429800000000	0.00000000000000	0.09024300000000	0.00000000000000	0.00000000000000	0.00000000000000	0.00000000000000	0.00000000000000	0.00000000000000	0.00000000000000	16.68493800000000	0.00000000000000	0.00000000000000	0.00000000000000	0.00000000000000	
1.29999200000000	-6.30660000000000	731.25216999999998	38.22151000000000	0.18308200000000	0.00000000000000	0.09025400000000	0.00000000000000	0.00000000000000	0.00000000000000	0.00000000000000	0.00000000000000	0.00000000000000	0.00000000000000	16.81409800000000	0.00000000000000	0.00000000000000	0.00000000000000	0.00000000000000	
1.30165300000000	-7.10215400000000	733.41194099999996	38.32635000000000	0.18187400000000	0.00000000000000	0.09026400000000	0.00000000000000	0.00000000000000	0.00000000000000	0.00000000000000	0.00000000000000	0.00000000000000	0.00000000000000	16.94436300000000	0.00000000000000	0.00000000000000	0.00000000000000	0.00000000000000	
1.30332700000000	-7.90372000000000	735.60032600000000	38.43349600000000	0.18067300000000	0.00000000000000	0.09027300000000	0.00000000000000	0.00000000000000	0.00000000000000	0.00000000000000	0.00000000000000	0.00000000000000	0.00000000000000	17.07557300000000	0.00000000000000	0.00000000000000	0.00000000000000	0.00000000000000	
1.30499100000000	-8.71068300000000	737.81637200000000	38.54293400000000	0.17948200000000	0.00000000000000	0.09028200000000	0.00000000000000	0.00000000000000	0.00000000000000	0.00000000000000	0.00000000000000	0.00000000000000	0.00000000000000	17.20756100000000	0.00000000000000	0.00000000000000	0.00000000000000	0.00000000000000	
1.30665900000000	-9.52241500000000	740.05907700000000	38.65465800000000	0.17830100000000	0.00000000000000	0.09029000000000	0.00000000000000	0.00000000000000	0.00000000000000	0.00000000000000	0.00000000000000	0.00000000000000	0.00000000000000	17.34015900000000	0.00000000000000	0.00000000000000	0.00000000000000	0.00000000000000	
1.30832800000000	-10.33827800000000	742.32738900000004	38.76867400000000	0.17713100000000	0.00000000000000	0.09029700000000	0.00000000000000	0.00000000000000	0.00000000000000	0.00000000000000	0.00000000000000	0.00000000000000	0.00000000000000	17.47319500000000	0.00000000000000	0.00000000000000	0.00000000000000	0.00000000000000	
1.30999400000000	-11.15762400000000	744.62019499999997	38.88499900000000	0.17597200000000	0.00000000000000	0.09030400000000	0.00000000000000	0.00000000000000	0.00000000000000	0.00000000000000	0.00000000000000	0.00000000000000	0.00000000000000	17.60649600000000	0.00000000000000	0.00000000000000	0.00000000000000	0.00000000000000	
1.31165900000000	-11.97980100000000	746.93632300000002	39.00366000000000	0.17482600000000	0.00000000000000	0.09031100000000	0.00000000000000	0.00000000000000	0.00000000000000	0.00000000000000	0.00000000000000	0.00000000000000	0.00000000000000	17.73988300000000	0.00000000000000	0.00000000000000	0.00000000000000	0.00000000000000	
1.31332400000000	-12.80414600000000	749.27453700000001	39.12469400000000	0.17369200000000	0.00000000000000	0.09031700000000	0.00000000000000	0.00000000000000	0.00000000000000	0.00000000000000	0.00000000000000	0.00000000000000	0.00000000000000	17.87317900000000	0.00000000000000	0.00000000000000	0.00000000000000	0.00000000000000	
1.31499500000000	-13.62999600000000	751.63352799999996	39.24814700000000	0.17257200000000	0.00000000000000	0.09032200000000	0.00000000000000	0.00000000000000	0.00000000000000	0.00000000000000	0.00000000000000	0.00000000000000	0.00000000000000	18.00620200000000	0.00000000000000	0.00000000000000	0.00000000000000	0.00000000000000	
1.31665600000000	-14.45668400000000	754.01191900000003	39.37407500000000	0.17146500000000	0.00000000000000	0.09032700000000	0.00000000000000	0.00000000000000	0.00000000000000	0.00000000000000	0.00000000000000	0.00000000000000	0.00000000000000	18.13877000000000	0.00000000000000	0.00000000000000	0.00000000000000	0.00000000000000	
1.31832600000000	-15.28353900000000	756.40825400000006	39.50254300000000	0.17037200000000	0.00000000000000	0.09033200000000	0.00000000000000	0.00000000000000	0.00000000000000	0.00000000000000	0.00000000000000	0.00000000000000	0.00000000000000	18.27069800000000	0.00000000000000	0.00000000000000	0.00000000000000	0.00000000000000	
